# Blender v2.92.0 OBJ File: ''
# www.blender.org
mtllib shelf2.mtl
o shelf_Mesh.001
v -145.552216 -18.990860 -75.393875
v -145.552216 20.817265 -75.393875
v -145.552216 -18.990860 -21.454622
v -145.552216 20.817265 -21.454622
v 158.430359 -18.990849 -21.454611
v 158.430359 20.817276 -21.454611
v 158.430359 -18.990849 -75.393867
v 158.430359 20.817276 -75.393867
v -68.122078 12.855642 -21.454620
v 81.000221 12.855648 -21.454613
v -68.122078 12.855642 -75.393875
v 81.000221 12.855648 -75.393867
v 81.000221 -18.990850 -75.393867
v 81.000221 -18.990850 -21.454613
v -63.345100 12.855642 -21.454620
v 76.223244 12.855648 -21.454613
v -63.345100 -18.990858 -21.454620
v 76.223244 -18.990850 -21.454613
v -63.345100 12.855642 -75.393875
v 76.223244 12.855648 -75.393867
v 4.050581 12.855644 -21.454617
v 8.827557 12.855644 -21.454617
v 4.050582 -18.990854 -21.454617
v 8.827558 -18.990854 -21.454617
v 4.050583 12.855644 -75.393875
v 8.827559 12.855644 -75.393875
v 4.050585 -18.990854 -75.393875
v 8.827560 -18.990854 -75.393875
v -68.122078 -18.990858 -21.454620
v -68.122078 -18.990858 -75.393875
v -63.345100 -18.990858 -75.393875
v 76.223244 -18.990850 -75.393867
v -123.652817 12.855639 -21.454622
v -123.652817 12.855639 -75.393875
v 136.530960 12.855650 -21.454611
v 136.530960 12.855650 -75.393867
v 158.430359 42.048279 -21.454611
v 158.430359 42.048279 -75.393867
v 136.530960 42.048275 -21.454611
v 136.530960 42.048275 -75.393867
v -145.552216 42.048264 -75.393875
v -145.552216 42.048264 -21.454622
v -123.652817 42.048267 -21.454622
v -123.652817 42.048267 -75.393875
v -149.798416 -23.237062 -75.393875
v -149.798416 20.817263 -75.393875
v -149.798416 -23.237062 -21.454624
v -149.798416 20.817263 -21.454624
v -68.122078 17.101841 -21.454620
v -68.122078 17.101841 -75.393875
v -68.122078 -23.237059 -21.454620
v -68.122078 -23.237059 -75.393875
v -119.406616 17.101839 -21.454622
v -119.406616 17.101839 -75.393875
v -149.798416 46.294464 -75.393875
v -149.798416 46.294464 -21.454624
v -119.406616 46.294468 -21.454622
v -119.406616 46.294468 -75.393875
v 162.676559 -23.237047 -21.454609
v 162.676559 20.817278 -21.454609
v 162.676559 -23.237047 -75.393860
v 162.676559 20.817278 -75.393860
v 81.000221 17.101849 -21.454613
v 81.000221 17.101849 -75.393867
v 81.000221 -23.237051 -75.393867
v 81.000221 -23.237051 -21.454613
v 76.223244 17.101849 -21.454613
v 76.223244 17.101849 -75.393867
v 132.284760 17.101851 -21.454611
v 132.284760 17.101851 -75.393867
v 162.676559 46.294479 -21.454609
v 162.676559 46.294479 -75.393860
v 132.284760 46.294476 -21.454611
v 132.284760 46.294476 -75.393867
v 4.050582 -23.237055 -21.454617
v 8.827558 -23.237055 -21.454617
v 4.050585 -23.237055 -75.393875
v 8.827560 -23.237055 -75.393875
v -63.345100 -23.237059 -21.454620
v -68.122078 -23.237059 -21.454620
v -68.122078 -23.237059 -75.393875
v -63.345100 -23.237059 -75.393875
v 76.223244 -23.237051 -21.454613
v 8.827558 -23.237055 -21.454617
v 8.827560 -23.237055 -75.393875
v 76.223244 -23.237051 -75.393867
v -63.345100 -23.237059 -21.454620
v 4.050582 -23.237055 -21.454617
v 4.050585 -23.237055 -75.393875
v -63.345100 -23.237059 -75.393875
v 76.223244 17.101849 -21.454613
v 76.223244 17.101849 -75.393867
v 8.827556 17.101845 -21.454617
v 8.827559 17.101845 -75.393875
v -63.345100 17.101841 -21.454620
v -63.345100 17.101841 -75.393875
v 4.050581 17.101845 -21.454617
v 4.050583 17.101845 -75.393875
v 81.000221 -23.237051 -75.393867
v 81.000221 -23.237051 -21.454613
v 76.223244 -23.237051 -21.454613
v 76.223244 -23.237051 -75.393867
v 4.050581 17.101845 -21.454617
v 8.827556 17.101845 -21.454617
v 4.050583 17.101845 -75.393875
v 8.827559 17.101845 -75.393875
v -68.122078 17.101841 -21.454620
v -68.122078 17.101841 -75.393875
v -63.345100 17.101841 -21.454620
v -63.345100 17.101841 -75.393875
vt 0.616665 0.503326
vt 0.760441 0.620758
vt 0.616665 0.620758
vt 0.285988 0.867542
vt 0.273255 0.952431
vt 0.273255 0.867542
vt 0.658226 0.067909
vt 0.802002 0.185341
vt 0.658226 0.185341
vt 0.746826 0.944176
vt 0.759559 0.800400
vt 0.759559 0.944176
vt 0.760437 0.891327
vt 0.897141 0.747551
vt 0.897141 0.891327
vt 0.431328 0.678604
vt 0.287552 0.460892
vt 0.431328 0.460892
vt 0.904205 0.579193
vt 0.985229 0.435417
vt 0.985229 0.579193
vt 0.300285 0.869556
vt 0.287552 0.954445
vt 0.287552 0.869556
vt 0.472889 0.435425
vt 0.616665 0.653137
vt 0.472889 0.653137
vt 0.444061 0.820175
vt 0.456787 0.963951
vt 0.444061 0.963951
vt 0.260529 0.952431
vt 0.273254 0.867542
vt 0.273254 0.952431
vt 0.616665 0.620758
vt 0.760441 0.800400
vt 0.616665 0.800400
vt 0.658226 0.185337
vt 0.802002 0.364981
vt 0.658226 0.364981
vt 0.472889 0.653122
vt 0.616665 0.832764
vt 0.472889 0.832764
vt 0.287552 0.678595
vt 0.431328 0.858239
vt 0.287552 0.858239
vt 0.298870 0.217712
vt 0.383759 0.230438
vt 0.298870 0.230438
vt 0.120255 0.954044
vt 0.107529 0.810268
vt 0.120255 0.810268
vt 0.120257 0.810268
vt 0.132990 0.954044
vt 0.120257 0.954044
vt 0.096207 0.810268
vt 0.011318 0.954044
vt 0.011318 0.810268
vt 0.898209 0.000000
vt 0.813320 0.143776
vt 0.813320 0.000000
vt 0.431320 0.820175
vt 0.444046 0.963951
vt 0.431320 0.963951
vt 0.898209 0.287552
vt 0.813320 0.431328
vt 0.813320 0.287552
vt 0.313019 0.858238
vt 0.325745 0.943127
vt 0.313019 0.943127
vt 0.712872 0.800400
vt 0.627983 0.944176
vt 0.627983 0.800400
vt 0.904217 0.734818
vt 0.760441 0.747543
vt 0.760441 0.734818
vt 0.898209 0.143776
vt 0.813320 0.287552
vt 0.813320 0.143776
vt 0.557775 0.832771
vt 0.472889 0.976547
vt 0.472889 0.832771
vt 0.300278 0.858238
vt 0.313004 0.943127
vt 0.300278 0.943127
vt 0.978149 0.747551
vt 0.897141 0.891327
vt 0.897141 0.747551
vt 0.760441 0.598114
vt 0.904217 0.598114
vt 0.909523 0.143776
vt 0.987335 0.000000
vt 0.987335 0.143776
vt 0.904213 0.722969
vt 0.982025 0.579193
vt 0.982025 0.722969
vt 0.658226 0.000000
vt 0.802002 0.067909
vt 0.616665 0.435417
vt 0.760441 0.503326
vt 0.760441 0.492012
vt 0.904217 0.598114
vt 0.760441 0.598114
vt 0.143776 0.545502
vt 0.287552 0.693512
vt 0.143776 0.693512
vt 0.143776 0.810272
vt 0.000000 0.603882
vt 0.143776 0.603882
vt 0.202148 0.856224
vt 0.143768 1.000000
vt 0.143768 0.856224
vt 0.909523 0.287552
vt 0.987335 0.143776
vt 0.987335 0.287552
vt 0.760441 0.435417
vt 0.904217 0.492012
vt 0.590317 0.435425
vt 0.484207 0.424103
vt 0.590317 0.424103
vt 0.646912 0.206390
vt 0.540802 0.217712
vt 0.540802 0.206390
vt 0.569096 0.217712
vt 0.580414 0.354416
vt 0.569096 0.365738
vt 0.616665 0.944176
vt 0.550705 0.136703
vt 0.562027 0.000000
vt 0.562027 0.148026
vt 0.724190 0.800400
vt 0.712872 0.944176
vt 0.472889 0.217712
vt 0.484207 0.217712
vt 0.658234 0.000000
vt 0.646912 0.000000
vt 0.472893 0.217712
vt 0.484215 0.148026
vt 0.484215 0.206390
vt 0.658226 0.354416
vt 0.646908 0.424103
vt 0.646908 0.365738
vt 0.143776 0.750122
vt 0.287552 0.856224
vt 0.143776 0.856224
vt 0.202148 1.000000
vt 0.260529 0.856224
vt 0.260529 1.000000
vt 0.000000 0.000000
vt 0.143776 0.206390
vt 0.000000 0.206390
vt 0.143776 0.160736
vt 0.287552 0.148010
vt 0.287552 0.160736
vt 0.143776 0.000000
vt 0.287552 0.000000
vt 0.909523 0.431328
vt 0.987335 0.287552
vt 0.987335 0.431328
vt 0.143776 0.693527
vt 0.287552 0.750122
vt 0.355461 0.230438
vt 0.461571 0.241760
vt 0.355461 0.241760
vt 0.298870 0.011322
vt 0.404980 0.000000
vt 0.404980 0.011322
vt 0.472889 0.000000
vt 0.461571 0.069702
vt 0.461571 0.011322
vt 0.287552 0.311462
vt 0.298874 0.241760
vt 0.298874 0.300140
vt 0.569094 0.832771
vt 0.557775 0.976547
vt 0.472893 0.448151
vt 0.461571 0.448151
vt 0.287552 0.217712
vt 0.395077 0.217712
vt 0.383759 0.217712
vt 0.365364 0.460876
vt 0.376686 0.448151
vt 0.376686 0.460876
vt 0.982029 0.722969
vt 0.993347 0.579193
vt 0.993347 0.722969
vt 0.365364 0.311462
vt 0.376686 0.300140
vt 0.395077 0.081024
vt 0.383759 0.069702
vt 0.000000 0.398773
vt 0.143776 0.411499
vt 0.000000 0.411499
vt 0.614368 0.832771
vt 0.603050 0.976547
vt 0.603050 0.832771
vt 0.300285 0.965763
vt 0.300285 0.954445
vt 0.591732 0.832771
vt 0.580414 0.976547
vt 0.580414 0.832771
vt 0.273255 0.856224
vt 0.143776 0.591156
vt 0.000000 0.591156
vt 0.260529 0.856224
vt 0.260529 0.867542
vt 0.468113 0.820175
vt 0.456795 0.963951
vt 0.456795 0.820175
vt 0.669544 0.364975
vt 0.658226 0.377701
vt 0.658226 0.364975
vt 0.989468 0.747551
vt 0.978149 0.891327
vt 0.978149 0.747551
vt 0.000000 0.219116
vt 0.143776 0.398773
vt 0.909527 0.000000
vt 0.898209 0.143776
vt 0.453964 0.460892
vt 0.442646 0.640533
vt 0.442646 0.460892
vt 0.909527 0.143776
vt 0.898209 0.287552
vt 0.453964 0.640533
vt 0.465282 0.460892
vt 0.465282 0.640533
vt 0.909527 0.287552
vt 0.898209 0.431328
vt 0.442646 0.460885
vt 0.431328 0.640529
vt 0.431328 0.460885
vt 0.107525 0.810268
vt 0.096207 0.954044
vt 0.431328 0.820173
vt 0.442646 0.640529
vt 0.442646 0.820173
vt 0.287552 0.340393
vt 0.143776 0.340393
vt 0.802002 0.143776
vt 0.453964 0.640533
vt 0.442646 0.820175
vt 0.442646 0.640533
vt 0.802002 0.287552
vt 0.735508 0.980042
vt 0.746826 0.800400
vt 0.746826 0.980042
vt 0.143776 0.353119
vt 0.287552 0.532776
vt 0.143776 0.532776
vt 0.802002 0.431328
vt 0.465282 0.640529
vt 0.453964 0.820173
vt 0.453964 0.640529
vt 0.000000 0.954044
vt 0.724190 0.980044
vt 0.735508 0.800400
vt 0.735508 0.980044
vt 0.143776 0.219116
vt 0.669544 0.377716
vt 0.658226 0.390442
vt 0.658226 0.377716
vt 0.580414 0.832771
vt 0.569096 0.976547
vt 0.569096 0.832771
vt 0.287552 0.230438
vt 0.603050 0.832771
vt 0.591732 0.976547
vt 0.591732 0.832771
vt 0.287552 0.353119
vt 0.285988 0.963749
vt 0.285988 0.952431
vt 0.985226 0.579193
vt 0.996544 0.435417
vt 0.996544 0.579193
vt 0.287552 0.858238
vt 0.987339 0.287552
vt 0.998657 0.143776
vt 0.998657 0.287552
vt 0.658226 0.403168
vt 0.669544 0.390442
vt 0.669544 0.403168
vt 0.987339 0.143776
vt 0.998657 0.000000
vt 0.998657 0.143776
vt 0.273254 0.963749
vt 0.987339 0.431328
vt 0.998657 0.287552
vt 0.998657 0.431328
vt 0.746826 0.800400
vt 0.760437 0.747551
vt 0.287552 0.678604
vt 0.904205 0.435417
vt 0.616665 0.435425
vt 0.456787 0.820175
vt 0.760441 0.620758
vt 0.802002 0.185337
vt 0.616665 0.653122
vt 0.431328 0.678595
vt 0.107529 0.954044
vt 0.132990 0.810268
vt 0.444046 0.820175
vt 0.325745 0.858238
vt 0.904217 0.747543
vt 0.313004 0.858238
vt 0.978149 0.891327
vt 0.909523 0.000000
vt 0.904213 0.579193
vt 0.802002 0.000000
vt 0.760441 0.435417
vt 0.287552 0.545502
vt 0.000000 0.810272
vt 0.202148 1.000000
vt 0.909523 0.143776
vt 0.904217 0.435417
vt 0.472889 0.435425
vt 0.658234 0.217712
vt 0.580414 0.217712
vt 0.616665 0.800400
vt 0.550705 0.000000
vt 0.724190 0.944176
vt 0.472893 0.136703
vt 0.658226 0.435425
vt 0.202148 0.856224
vt 0.143776 0.000000
vt 0.143776 0.148010
vt 0.909523 0.287552
vt 0.287552 0.693527
vt 0.472893 0.230438
vt 0.287552 0.000000
vt 0.472889 0.081024
vt 0.287552 0.230438
vt 0.569094 0.976547
vt 0.395077 0.230438
vt 0.365364 0.448151
vt 0.982029 0.579193
vt 0.614368 0.976547
vt 0.287552 0.965763
vt 0.591732 0.976547
vt 0.285988 0.856224
vt 0.273254 0.856224
vt 0.468113 0.963951
vt 0.669544 0.377701
vt 0.989468 0.891327
vt 0.909527 0.143776
vt 0.453964 0.640533
vt 0.909527 0.287552
vt 0.453964 0.460892
vt 0.909527 0.431328
vt 0.442646 0.640529
vt 0.107525 0.954044
vt 0.431328 0.640529
vt 0.802002 0.000000
vt 0.453964 0.820175
vt 0.802002 0.143776
vt 0.735508 0.800400
vt 0.802002 0.287552
vt 0.465282 0.820173
vt 0.000000 0.810268
vt 0.724190 0.800400
vt 0.669544 0.390442
vt 0.580414 0.976547
vt 0.287552 0.217712
vt 0.603050 0.976547
vt 0.273255 0.963749
vt 0.985226 0.435417
vt 0.300285 0.858238
vt 0.987339 0.143776
vt 0.658226 0.390442
vt 0.987339 0.000000
vt 0.260529 0.963749
vt 0.987339 0.287552
vn -1.0000 0.0000 0.0000
vn 0.0000 0.0000 1.0000
vn 1.0000 0.0000 0.0000
vn 0.0000 -1.0000 0.0000
vn -0.0000 1.0000 0.0000
vn 0.0000 0.0000 -1.0000
usemtl Mat.003
s 1
f 48/1/1 45/2/1 47/3/1
f 24/4/2 21/5/2 23/6/2
f 62/7/3 59/8/3 61/9/3
f 78/10/4 75/11/4 77/12/4
f 49/13/5 54/14/5 53/15/5
f 47/16/4 52/17/4 51/18/4
f 71/19/5 74/20/5 73/21/5
f 26/22/6 27/23/6 25/24/6
f 61/25/4 66/26/4 65/27/4
f 81/28/4 79/29/4 80/30/4
f 9/31/2 17/32/2 15/33/2
f 86/34/4 84/35/4 85/36/4
f 89/37/4 87/38/4 90/39/4
f 91/40/5 94/41/5 93/42/5
f 97/43/5 96/44/5 95/45/5
f 14/46/2 16/47/2 18/48/2
f 100/49/4 102/50/4 99/51/4
f 106/52/5 103/53/5 104/54/5
f 23/55/3 25/56/3 21/57/3
f 28/58/1 22/59/1 26/60/1
f 107/61/5 110/62/5 108/63/5
f 31/64/1 15/65/1 19/66/1
f 30/67/2 19/68/2 11/69/2
f 29/70/3 11/71/3 9/72/3
f 64/73/5 67/74/5 63/75/5
f 18/76/3 20/77/3 16/78/3
f 13/79/1 10/80/1 12/81/1
f 32/82/2 12/83/2 20/84/2
f 55/85/5 57/86/5 58/87/5
f 64/73/5 69/88/5 70/89/5
f 73/90/1 70/91/1 69/92/1
f 58/93/3 53/94/3 54/95/3
f 72/96/3 60/97/3 62/7/3
f 56/98/1 46/99/1 48/1/1
f 2/100/3 3/101/3 1/102/3
f 11/103/4 33/104/4 34/105/4
f 1/106/5 29/107/5 30/108/5
f 42/109/4 44/110/4 43/111/4
f 43/112/1 34/113/1 33/114/1
f 41/115/3 4/116/3 2/100/3
f 48/117/2 3/118/2 4/119/2
f 1/120/6 46/121/6 2/122/6
f 9/123/2 53/124/2 33/125/2
f 50/126/3 9/72/3 11/71/3
f 54/127/6 11/128/6 34/129/6
f 51/130/3 30/131/3 29/70/3
f 3/118/2 51/132/2 29/133/2
f 52/134/6 1/120/6 30/135/6
f 55/136/6 44/137/6 41/138/6
f 57/139/2 42/140/2 43/141/2
f 44/137/6 54/127/6 34/129/6
f 53/124/2 43/141/2 33/125/2
f 42/140/2 48/117/2 4/119/2
f 46/121/6 41/138/6 2/122/6
f 6/142/1 7/143/1 5/144/1
f 38/145/4 39/146/4 40/147/4
f 5/148/5 13/149/5 14/150/5
f 20/151/4 10/152/4 16/153/4
f 10/152/4 36/154/4 35/155/4
f 40/156/3 35/157/3 36/158/3
f 37/159/1 8/160/1 6/142/1
f 62/161/6 7/162/6 8/163/6
f 5/164/2 60/165/2 6/166/2
f 71/167/2 39/168/2 37/169/2
f 74/170/6 38/171/6 40/172/6
f 65/173/1 14/174/1 13/79/1
f 7/162/6 65/175/6 13/176/6
f 66/177/2 5/164/2 14/46/2
f 63/178/2 16/47/2 10/179/2
f 68/180/6 12/181/6 20/182/6
f 67/183/1 20/184/1 16/185/1
f 12/181/6 70/186/6 36/187/6
f 69/188/2 10/179/2 35/189/2
f 39/168/2 69/188/2 35/189/2
f 70/186/6 40/172/6 36/187/6
f 38/171/6 62/161/6 8/163/6
f 60/165/2 37/169/2 6/166/2
f 24/190/5 27/191/5 23/192/5
f 77/193/1 23/194/1 27/195/1
f 78/196/6 27/23/6 28/197/6
f 76/198/3 28/199/3 24/200/3
f 75/201/2 24/4/2 23/6/2
f 31/202/5 29/107/5 17/203/5
f 80/204/2 17/32/2 29/205/2
f 81/206/1 29/207/1 30/208/1
f 82/209/6 30/210/6 31/211/6
f 79/212/3 31/213/3 17/214/3
f 18/215/5 28/216/5 24/190/5
f 85/217/1 24/218/1 28/58/1
f 86/219/6 28/220/6 32/221/6
f 83/222/3 32/223/3 18/76/3
f 84/224/2 18/225/2 24/226/2
f 23/192/5 31/202/5 17/203/5
f 90/227/1 17/228/1 31/64/1
f 89/229/6 31/230/6 27/231/6
f 88/232/3 27/233/3 23/55/3
f 87/234/2 23/235/2 17/236/2
f 20/151/4 22/237/4 26/238/4
f 93/239/1 26/60/1 22/59/1
f 91/240/2 22/241/2 16/242/2
f 92/243/3 16/78/3 20/77/3
f 94/244/6 20/245/6 26/246/6
f 25/247/4 15/248/4 19/249/4
f 95/250/1 19/66/1 15/65/1
f 97/251/2 15/252/2 21/253/2
f 98/254/3 21/57/3 25/56/3
f 96/255/6 25/256/6 19/257/6
f 18/215/5 13/149/5 32/258/5
f 99/259/6 32/260/6 13/261/6
f 100/262/3 13/263/3 14/264/3
f 101/265/2 14/46/2 18/48/2
f 102/266/1 18/267/1 32/268/1
f 25/247/4 22/237/4 21/269/4
f 104/270/2 21/5/2 22/271/2
f 106/272/3 22/273/3 26/274/3
f 105/275/6 26/22/6 25/24/6
f 103/276/1 25/277/1 21/278/1
f 15/248/4 11/103/4 19/249/4
f 108/279/6 19/280/6 11/281/6
f 107/282/1 11/283/1 9/284/1
f 109/285/2 9/31/2 15/33/2
f 110/286/3 15/287/3 19/288/3
f 48/1/1 46/99/1 45/2/1
f 24/4/2 22/271/2 21/5/2
f 62/7/3 60/97/3 59/8/3
f 78/10/4 76/289/4 75/11/4
f 49/13/5 50/290/5 54/14/5
f 47/16/4 45/291/4 52/17/4
f 71/19/5 72/292/5 74/20/5
f 26/22/6 28/197/6 27/23/6
f 61/25/4 59/293/4 66/26/4
f 81/28/4 82/294/4 79/29/4
f 9/31/2 29/205/2 17/32/2
f 86/34/4 83/295/4 84/35/4
f 89/37/4 88/296/4 87/38/4
f 91/40/5 92/297/5 94/41/5
f 97/43/5 98/298/5 96/44/5
f 14/46/2 10/179/2 16/47/2
f 100/49/4 101/299/4 102/50/4
f 106/52/5 105/300/5 103/53/5
f 23/55/3 27/233/3 25/56/3
f 28/58/1 24/218/1 22/59/1
f 107/61/5 109/301/5 110/62/5
f 31/64/1 17/228/1 15/65/1
f 30/67/2 31/302/2 19/68/2
f 29/70/3 30/131/3 11/71/3
f 64/73/5 68/303/5 67/74/5
f 18/76/3 32/223/3 20/77/3
f 13/79/1 14/174/1 10/80/1
f 32/82/2 13/304/2 12/83/2
f 55/85/5 56/305/5 57/86/5
f 64/73/5 63/75/5 69/88/5
f 73/90/1 74/306/1 70/91/1
f 58/93/3 57/307/3 53/94/3
f 72/96/3 71/308/3 60/97/3
f 56/98/1 55/309/1 46/99/1
f 2/100/3 4/116/3 3/101/3
f 11/103/4 9/310/4 33/104/4
f 1/106/5 3/311/5 29/107/5
f 42/109/4 41/312/4 44/110/4
f 43/112/1 44/313/1 34/113/1
f 41/115/3 42/314/3 4/116/3
f 48/117/2 47/315/2 3/118/2
f 1/120/6 45/316/6 46/121/6
f 9/123/2 49/317/2 53/124/2
f 50/126/3 49/318/3 9/72/3
f 54/127/6 50/319/6 11/128/6
f 51/130/3 52/320/3 30/131/3
f 3/118/2 47/315/2 51/132/2
f 52/134/6 45/316/6 1/120/6
f 55/136/6 58/321/6 44/137/6
f 57/139/2 56/322/2 42/140/2
f 44/137/6 58/321/6 54/127/6
f 53/124/2 57/139/2 43/141/2
f 42/140/2 56/322/2 48/117/2
f 46/121/6 55/136/6 41/138/6
f 6/142/1 8/160/1 7/143/1
f 38/145/4 37/323/4 39/146/4
f 5/148/5 7/324/5 13/149/5
f 20/151/4 12/325/4 10/152/4
f 10/152/4 12/325/4 36/154/4
f 40/156/3 39/326/3 35/157/3
f 37/159/1 38/327/1 8/160/1
f 62/161/6 61/328/6 7/162/6
f 5/164/2 59/329/2 60/165/2
f 71/167/2 73/330/2 39/168/2
f 74/170/6 72/331/6 38/171/6
f 65/173/1 66/332/1 14/174/1
f 7/162/6 61/328/6 65/175/6
f 66/177/2 59/329/2 5/164/2
f 63/178/2 67/333/2 16/47/2
f 68/180/6 64/334/6 12/181/6
f 67/183/1 68/335/1 20/184/1
f 12/181/6 64/334/6 70/186/6
f 69/188/2 63/178/2 10/179/2
f 39/168/2 73/330/2 69/188/2
f 70/186/6 74/170/6 40/172/6
f 38/171/6 72/331/6 62/161/6
f 60/165/2 71/167/2 37/169/2
f 24/190/5 28/216/5 27/191/5
f 77/193/1 75/336/1 23/194/1
f 78/196/6 77/337/6 27/23/6
f 76/198/3 78/338/3 28/199/3
f 75/201/2 76/339/2 24/4/2
f 31/202/5 30/108/5 29/107/5
f 80/204/2 79/340/2 17/32/2
f 81/206/1 80/341/1 29/207/1
f 82/209/6 81/342/6 30/210/6
f 79/212/3 82/343/3 31/213/3
f 18/215/5 32/258/5 28/216/5
f 85/217/1 84/344/1 24/218/1
f 86/219/6 85/345/6 28/220/6
f 83/222/3 86/346/3 32/223/3
f 84/224/2 83/347/2 18/225/2
f 23/192/5 27/191/5 31/202/5
f 90/227/1 87/348/1 17/228/1
f 89/229/6 90/349/6 31/230/6
f 88/232/3 89/350/3 27/233/3
f 87/234/2 88/351/2 23/235/2
f 20/151/4 16/153/4 22/237/4
f 93/239/1 94/352/1 26/60/1
f 91/240/2 93/353/2 22/241/2
f 92/243/3 91/354/3 16/78/3
f 94/244/6 92/355/6 20/245/6
f 25/247/4 21/269/4 15/248/4
f 95/250/1 96/356/1 19/66/1
f 97/251/2 95/357/2 15/252/2
f 98/254/3 97/358/3 21/57/3
f 96/255/6 98/359/6 25/256/6
f 18/215/5 14/150/5 13/149/5
f 99/259/6 102/360/6 32/260/6
f 100/262/3 99/361/3 13/263/3
f 101/265/2 100/362/2 14/46/2
f 102/266/1 101/363/1 18/267/1
f 25/247/4 26/238/4 22/237/4
f 104/270/2 103/364/2 21/5/2
f 106/272/3 104/365/3 22/273/3
f 105/275/6 106/366/6 26/22/6
f 103/276/1 105/367/1 25/277/1
f 15/248/4 9/310/4 11/103/4
f 108/279/6 110/368/6 19/280/6
f 107/282/1 108/369/1 11/283/1
f 109/285/2 107/370/2 9/31/2
f 110/286/3 109/371/3 15/287/3
